<svg width="4000" height="284" viewBox="0 0 4000 284" fill="none" xmlns="http://www.w3.org/2000/svg">
<path fill-rule="evenodd" clip-rule="evenodd" d="M244 125.5C329.6 25.9 450.333 0.333333 500 0C549.667 0.333333 670.4 25.9 756 125.5C841.6 225.1 954.333 242.333 1000 238.5C1045.67 242.333 1158.4 225.1 1244 125.5C1329.6 25.9 1450.33 0.333333 1500 0C1549.67 0.333333 1670.4 25.9 1756 125.5C1841.6 225.1 1954.33 242.333 2000 238.5C2045.67 242.333 2158.4 225.1 2244 125.5C2329.6 25.9 2450.33 0.333333 2500 0C2549.67 0.333333 2670.4 25.9 2756 125.5C2841.6 225.1 2954.33 242.333 3000 238.5C3045.67 242.333 3158.4 225.1 3244 125.5C3329.6 25.9 3450.33 0.333333 3500 0C3549.67 0.333333 3670.4 25.9 3756 125.5C3841.6 225.1 3954.33 242.333 4000 238.5V284H3500H3000H2500H2000H1500H1000H500H0V238.5C45.6667 242.333 158.4 225.1 244 125.5Z" fill="#FB5A00"/>
</svg>
